# xmcd
#
# Track frame offsets:
# 180
# 14950
# 28628
# 47148
# 61848
# 72356
# 92236
# 104159
# 119741
# 133633
# 147055
# 170061
# 183877
# 199092
# 213808
#
# Disc length: 3042 seconds
#
#
# Revision: 2
# Processed by: cddbd v1.5.2PL0 Copyright (c) Steve Scherf et al.
# Submitted via: FreeRIP 2.951 
#
DISCID=e70be00f
DTITLE=Bruno and Marrone - Volume 2
DYEAR=1995
DGENRE=Sertanejo
TTITLE0=Favo De Mel
TTITLE1=Tô Machucado
TTITLE2=Fruto Especial
TTITLE3=Amor Não É Jogo De Azar
TTITLE4=Volta Pra Mim
TTITLE5=Faz De Conta
TTITLE6=Esqueci
TTITLE7=Não Faz Isso Não
TTITLE8=Banho De Amor
TTITLE9=Goiás É Mais
TTITLE10=Pago Calado
TTITLE11=Perigosa Demais
TTITLE12=Se Eu Ficar Sem Você
TTITLE13=Pela Porta Da Frente
TTITLE14=Mato a Cobra E Mostro O Pau
EXTD=
EXTT0=
EXTT1=
EXTT2=
EXTT3=
EXTT4=
EXTT5=
EXTT6=
EXTT7=
EXTT8=
EXTT9=
EXTT10=
EXTT11=
EXTT12=
EXTT13=
EXTT14=
PLAYORDER=
